<svg id="Layer_1" data-name="Layer 1" xmlns="http://www.w3.org/2000/svg" viewBox="0 0 55.26 55.26"><defs><style>.cls-1{fill:none;stroke:#3d2e29;stroke-linecap:round;stroke-linejoin:round;stroke-width:4px;}</style></defs><circle id="Ellipse_738" data-name="Ellipse 738" class="cls-1" cx="27.63" cy="27.63" r="25.63"/><path class="cls-1" d="M46.59,10.39H39.18a6.07,6.07,0,0,0-6.07,6.07h0a6.08,6.08,0,0,0,6.08,6.08h.59a4.55,4.55,0,0,1,4.54,4.55h0a4.54,4.54,0,0,1-4.54,4.54h-7a6.43,6.43,0,0,0-6.43,6.43h0a6,6,0,0,0,5.95,6h14"/><path class="cls-1" d="M6.31,15.63h4.32a5.57,5.57,0,0,1,5.57,5.58h0a5.68,5.68,0,0,1-5.68,5.68H2"/></svg>